# xmcd
#
# Track frame offsets:
#	187
#	9277
#	19165
#	29937
#	40700
#	52107
#	61872
#	75007
#	85277
#	96082
#	108007
#	118895
#	129365
#	137862
#
# Disc length: 1976 seconds
#
# Revision: 0
# Processed by: cddbd v1.5.1PL2 Copyright (c) Steve Scherf et al.
# Submitted via: dBpowerAMP V4.0
#
DISCID=ac07b60e
DTITLE=Bob Wills and His Texas Playboys - The Tiffany Transcriptions Vol. 7
DYEAR=1987
DGENRE=Country
TTITLE0=Keep Knockin' (But You Can't Come In)
TTITLE1=Honeysuckle Rose
TTITLE2=Worried Mind
TTITLE3=Okie Boogie
TTITLE4=C-Jam Blues
TTITLE5=I Can't go on This Way
TTITLE6=Sweet Moments
TTITLE7=My Gal Sal
TTITLE8=I'm Gonna Boss From Now On
TTITLE9=Lonesome Hearted Blues
TTITLE10=Joe's Place
TTITLE11=Sugar Blues
TTITLE12=Too Long
TTITLE13=Tea For Two
EXTD=My email: buggywhip@gmail.com\nThe exact wording of the album title and artist as printed on the album cover, including punctuation and capitalization, is a little different than what is shown in your listing. It should be:\nAlbum title:\nThe Tiffany
EXTD=Transcriptions Vol. 7 KEEP KNOCKIN'\nArtist:\nBob Wills and His Texas Playboys\nHope this helps!  Kelly Grant\nartist:\nBob Wills and His Texas Playboys\nHope this helps!  Kelly Grant
EXTT0=
EXTT1=
EXTT2=
EXTT3=
EXTT4=
EXTT5=
EXTT6=
EXTT7=
EXTT8=
EXTT9=
EXTT10=
EXTT11=
EXTT12=
EXTT13=
PLAYORDER=
